<?xml version="1.0" encoding="utf-8"?><svg viewBox="0 0 100 100" xmlns="http://www.w3.org/2000/svg" width="200px" height="200px" xmlns:xlink="http://www.w3.org/1999/xlink" style="width:100%;height:100%;background-size:initial;background-repeat-y:initial;background-repeat-x:initial;background-position-y:initial;background-position-x:initial;background-origin:initial;background-image:initial;background-color:rgb(255, 255, 255);background-clip:initial;background-attachment:initial;animation-play-state:paused" ><g class="ldl-scale" style="transform-origin:50% 50%;transform:rotate(0deg) scale(0.8, 0.8);animation-play-state:paused" ><linearGradient y2="79.344" x2="50" y1="22.624" x1="50" gradientUnits="userSpaceOnUse" id="a" style="animation-play-state:paused" ><stop stop-color="#f5e6c8" offset="0" style="stop-color:rgb(245, 230, 200);animation-play-state:paused" ></stop>
<stop stop-color="#f8c788" offset=".509" style="stop-color:rgb(248, 199, 136);animation-play-state:paused" ></stop>
<stop stop-color="#f5e6c8" offset="1" style="stop-color:rgb(245, 230, 200);animation-play-state:paused" ></stop></linearGradient>
<circle stroke-miterlimit="10" stroke-width="3" stroke="#f8b26a" fill="url(#a)" r="40" cy="50" cx="50" style="stroke:rgb(248, 178, 106);animation-play-state:paused" ></circle>
<path stroke-miterlimit="10" stroke-linejoin="round" stroke-linecap="round" stroke-width="5" stroke="#000" fill="none" d="M64.983 60.125a9.45 9.45 0 0 1 .653 3.473c0 4.927-3.721 8.921-8.311 8.921-5.117 0-5.924-4.737-7.326-7.537h.002c-1.402 2.8-2.169 7.537-7.326 7.537-4.59 0-8.311-3.994-8.311-8.921 0-1.163.207-2.274.585-3.293" style="animation-play-state:paused" ></path>
<path stroke-miterlimit="10" stroke-linejoin="round" stroke-linecap="round" stroke-width="5" stroke="#000" fill="none" d="M27.415 44.583c0-14.111 16.563-14.111 16.563 0" style="animation-play-state:paused" ></path>
<path stroke-miterlimit="10" stroke-linejoin="round" stroke-linecap="round" stroke-width="5" stroke="#000" fill="none" d="M72.488 44.583c0-14.111-16.563-14.111-16.563 0" style="animation-play-state:paused" ></path>
<metadata xmlns:d="https://loading.io/stock/" style="animation-play-state:paused" ><d:name style="animation-play-state:paused" >kitty</d:name>


<d:tags style="animation-play-state:paused" >kitty,cute,kawaii,cat,meow,adorable,lovely,dear,nice,happy,joy</d:tags>


<d:license style="animation-play-state:paused" >by</d:license>


<d:slug style="animation-play-state:paused" >421ob4</d:slug></metadata></g><!-- generated by https://loading.io/ --></svg>